<svg xmlns="http://www.w3.org/2000/svg" xmlns:xlink="http://www.w3.org/1999/xlink" preserveAspectRatio="xMidYMid meet" version="1.0" viewBox="-0.5 -0.3 500.9 500.0" zoomAndPan="magnify" style="fill: rgb(0, 0, 0);" original_string_length="2933" width="160.5px" height="160.20818181818183px"><g id="__id25_s4mouc2hu"><path d="M-0.5 -0.3H500.4V499.7H-0.5z" style="fill: rgb(246, 194, 35);"/></g><g id="__id26_s4mouc2hu"><path d="M446.4,465.7h-88.7c-10.6,0-19.1-8.6-19.1-19.1V317.4c0-22.4,18.2-40.6,40.6-40.6h45.7 c22.5,0,40.7,18.2,40.7,40.7v129.1C465.6,457.1,457,465.7,446.4,465.7z" style="fill: rgb(253, 136, 61);"/></g><g id="__id27_s4mouc2hu"><path d="M430.5,301.1h-54.9c-17.5,0-31.7-14.2-31.7-31.7v-23.4c0-17.5,14.2-31.7,31.7-31.7h54.9 c17.5,0,31.7,14.2,31.7,31.7v23.4C462.1,286.9,448,301.1,430.5,301.1z" style="fill: rgb(0, 100, 89);"/></g><g id="__id28_s4mouc2hu"><path d="M297.5,237.7c0,13.2-10.7,23.9-23.9,23.9s-23.9-10.7-23.9-23.9c0-13.2,10.7-23.9,23.9-23.9 S297.5,224.5,297.5,237.7z M318.1,154.4c-13.2,0-23.9,10.7-23.9,23.9c0,13.2,10.7,23.9,23.9,23.9c13.2,0,23.9-10.7,23.9-23.9 C342,165.1,331.3,154.4,318.1,154.4z M418.9,251.9v-75.1c0-9.3-7.5-16.8-16.8-16.8h0c-9.3,0-16.8,7.5-16.8,16.8v75.1 c0,9.3,7.5,16.8,16.8,16.8h0C411.3,268.8,418.9,261.2,418.9,251.9z" style="fill: rgb(25, 175, 135);"/></g><g id="__id29_s4mouc2hu"><path d="M338.6 344.6H465.6V417.40000000000003H338.6z" style="fill: rgb(25, 175, 135);"/></g><g id="__id30_s4mouc2hu"><circle cx="149.2" cy="144.3" r="108.8" style="fill: rgb(247, 245, 227);"/></g><g id="__id31_s4mouc2hu"><path d="M149.2,224.5c-44.2,0-80.1-35.9-80.1-80.1s35.9-80.1,80.1-80.1c44.2,0,80.1,35.9,80.1,80.1 S193.4,224.5,149.2,224.5z" style="fill: rgb(0, 100, 89);"/></g><g id="__id32_s4mouc2hu"><path d="M315.9,65.2h-36.7c-3.8,0-6.9-3.1-6.9-6.9v-2.1c0-3.8,3.1-6.9,6.9-6.9h36.7c3.8,0,6.9,3.1,6.9,6.9v2.1 C322.8,62.1,319.7,65.2,315.9,65.2z M465.4,58.3v-2.1c0-3.8-3.1-6.9-6.9-6.9h-36.7c-3.8,0-6.9,3.1-6.9,6.9v2.1 c0,3.8,3.1,6.9,6.9,6.9h36.7C462.3,65.2,465.4,62.1,465.4,58.3z M323.9,90.7v-2.1c0-3.8-3.1-6.9-6.9-6.9h-36.7 c-3.8,0-6.9,3.1-6.9,6.9v2.1c0,3.8,3.1,6.9,6.9,6.9H317C320.8,97.6,323.9,94.5,323.9,90.7z M466.5,90.7v-2.1c0-3.8-3.1-6.9-6.9-6.9 h-36.7c-3.8,0-6.9,3.1-6.9,6.9v2.1c0,3.8,3.1,6.9,6.9,6.9h36.7C463.4,97.6,466.5,94.5,466.5,90.7z M323.9,121v-2.1 c0-3.8-3.1-6.9-6.9-6.9h-36.7c-3.8,0-6.9,3.1-6.9,6.9v2.1c0,3.8,3.1,6.9,6.9,6.9H317C320.8,127.9,323.9,124.8,323.9,121z M466.5,121 v-2.1c0-3.8-3.1-6.9-6.9-6.9h-36.7c-3.8,0-6.9,3.1-6.9,6.9v2.1c0,3.8,3.1,6.9,6.9,6.9h36.7C463.4,127.9,466.5,124.8,466.5,121z" style="fill: rgb(247, 245, 227);"/></g><g id="__id33_s4mouc2hu"><path d="M431.5,65.2H308.4V49.4h123.1V65.2z M432.6,81.7H309.5v15.8h123.1V81.7z M432.6,112H309.5v15.8h123.1V112z" style="fill: rgb(253, 136, 61);"/></g><g id="__id34_s4mouc2hu"><path d="M249.7,465.7H112.6c-37.8,0-68.4-30.6-68.4-68.4v-40.7c0-37.8,30.6-68.4,68.4-68.4h137.1 c37.8,0,68.4,30.6,68.4,68.4v40.7C318.1,435,287.4,465.7,249.7,465.7z" style="fill: rgb(0, 100, 89);"/></g><g id="__id35_s4mouc2hu"><path d="M133.4 288.1H228.9V465.70000000000005H133.4z" style="fill: rgb(25, 175, 135);"/></g><g id="__id36_s4mouc2hu"><path d="M127.3 364.1H234.89999999999998V389.6H127.3z" transform="rotate(90 181.121 376.88)" style="fill: rgb(253, 136, 61);"/></g></svg>