<svg xmlns="http://www.w3.org/2000/svg" xmlns:xlink="http://www.w3.org/1999/xlink" preserveAspectRatio="xMidYMid meet" version="1.0" viewBox="0.0 0.0 395.0 395.0" zoomAndPan="magnify" style="fill: rgb(0, 0, 0);" original_string_length="1373" width="46.84295744887604px" height="46.84295744887604px"><g id="__id13_s4mouc2hu"><path d="M395.0479,197.524c0-12.5365-38.3229-22.6992-85.5965-22.6992v-3.6319 c47.2736,0,85.5965-38.3229,85.5965-85.5965c0-23.6368-9.5807-45.0359-25.0706-60.5258C354.4873,9.5809,333.0882,0,309.4514,0 c-47.2736,0-85.5963,38.3229-85.5963,85.5965h-3.6319C220.2233,38.3229,210.0603,0,197.5238,0s-22.6992,38.3229-22.6992,85.5965 h-3.6319C171.1927,38.3229,132.8699,0,85.5963,0C61.9595,0,40.5604,9.5809,25.0706,25.0706C9.5807,40.5606,0,61.9597,0,85.5965 c0,47.2736,38.3227,85.5965,85.5963,85.5965v3.6319C38.3227,174.8248,0,184.9875,0,197.524s38.3227,22.6992,85.5963,22.6992v3.6319 C38.3227,223.8551,0,262.178,0,309.4516c0,23.6368,9.5807,45.0359,25.0706,60.5258c15.4898,15.4898,36.8889,25.0705,60.5256,25.0705 c47.2736,0,85.5965-38.3227,85.5965-85.5963h3.6319c0,47.2736,10.1628,85.5963,22.6992,85.5963 c12.5365,0,22.6994-38.3227,22.6994-85.5963h3.6319c0,47.2736,38.3227,85.5963,85.5963,85.5963 c23.6368,0,45.0359-9.5807,60.5258-25.0706c15.49-15.4898,25.0706-36.8889,25.0706-60.5256 c0-47.2736-38.3229-85.5965-85.5965-85.5965v-3.6319C356.725,220.2233,395.0479,210.0605,395.0479,197.524z" style="fill: rgb(7, 166, 125);"/></g></svg>