<svg xmlns="http://www.w3.org/2000/svg" xmlns:xlink="http://www.w3.org/1999/xlink" preserveAspectRatio="xMidYMid meet" version="1.0" viewBox="-6.6 -6.6 462.4 461.3" zoomAndPan="magnify" style="fill: rgb(0, 0, 0);" original_string_length="2388" width="178.39161950964584px" height="178.06727111053743px"><g><g><g id="__id18_s4mouc2hu" style="fill: rgb(247, 206, 70);"><path d="M300.7911,134.1363c8.2453-0.8055,15.1273,6.2001,14.3342,14.4465 c-1.8635,19.3751,4.6598,39.4041,19.5728,54.1959c26.3129,26.0987,68.655,26.0079,94.8608-0.1985 c26.2493-26.2498,26.2491-68.8089-0.0005-95.0584C414.76,92.7233,394.7787,86.2696,375.458,88.1576 c-8.2453,0.8058-15.1273-6.1999-14.3342-14.4466c1.8634-19.3749-4.6597-39.4038-19.5726-54.1955 c-26.3127-26.0991-68.6552-26.0081-94.8611,0.1983c-26.2492,26.2498-26.2491,68.8087,0.0005,95.0582 C261.4891,129.5706,281.4704,136.0243,300.7911,134.1363z" style="fill: inherit;"/><path d="M114.5475,202.7788c14.9131-14.7918,21.4365-34.8208,19.573-54.1959 c-0.7931-8.2464,6.0889-15.2521,14.3341-14.4465c19.3208,1.888,39.3021-4.5657,54.1006-19.3642 c26.2496-26.2496,26.2498-68.8085,0.0005-95.0582c-26.2059-26.2064-68.5484-26.2974-94.8611-0.1983 C92.7817,34.3072,86.2584,54.3362,88.1219,73.711c0.793,8.2467-6.0889,15.2523-14.3343,14.4466 c-19.3206-1.888-39.3019,4.5657-54.1002,19.3642c-26.2497,26.2496-26.2499,68.8087-0.0006,95.0584 C45.8925,228.7867,88.2346,228.8775,114.5475,202.7788z" style="fill: inherit;"/><path d="M334.6982,245.3588c-14.9131,14.7918-21.4364,34.8208-19.5728,54.1959 c0.7932,8.2465-6.0889,15.2521-14.3342,14.4466c-19.3207-1.888-39.302,4.5657-54.1004,19.3642 c-26.2497,26.2496-26.2498,68.8085-0.0005,95.0583c26.2058,26.2064,68.5484,26.2974,94.8611,0.1983 c14.9129-14.7916,21.4361-34.8206,19.5726-54.1955c-0.7932-8.2466,6.0889-15.2523,14.3342-14.4465 c19.3207,1.888,39.302-4.5658,54.1003-19.3642c26.2497-26.2496,26.2499-68.8087,0.0005-95.0585 C403.3532,219.3509,361.011,219.2601,334.6982,245.3588z" style="fill: inherit;"/><path d="M148.4545,314.0013c-8.2452,0.8055-15.1272-6.2001-14.3341-14.4466 c1.8635-19.3751-4.6599-39.4041-19.573-54.1959c-26.3129-26.0987-68.655-26.0079-94.8608,0.1985 c-26.2492,26.2498-26.249,68.8089,0.0006,95.0585C34.4858,355.4142,54.467,361.868,73.7877,359.98 c8.2454-0.8058,15.1273,6.1999,14.3343,14.4465c-1.8635,19.3749,4.6598,39.4038,19.5726,54.1955 c26.3127,26.0992,68.6552,26.0081,94.8611-0.1983c26.2492-26.2498,26.2491-68.8087-0.0005-95.0583 C187.7567,318.567,167.7754,312.1133,148.4545,314.0013z" style="fill: inherit;"/><circle cx="224.623" cy="224.069" r="94.616" style="fill: inherit;"/></g></g></g></svg>