<svg xmlns="http://www.w3.org/2000/svg" xmlns:xlink="http://www.w3.org/1999/xlink" preserveAspectRatio="xMidYMid meet" version="1.0" viewBox="0.0 0.0 392.1 520.2" zoomAndPan="magnify" style="fill: rgb(0, 0, 0);" original_string_length="2118" width="253.40851136502204px" height="335.8426054235232px"><g id="__id6_s4mouc2hu"><path d="M392.0578,265.6964l-0.0006,94.2124c-0.0006,88.5139-71.7555,160.2683-160.2695,160.2682h-28.8403 l0.0006-94.2124c0.0006-88.5139,71.7555-160.2683,160.2695-160.2682H392.0578z M28.8403,265.6964H0l0.0006,94.2124 C0.0012,448.4227,71.7561,520.1771,160.27,520.1771l28.8404-0.0001l-0.0006-94.2123 C189.1092,337.4508,117.3543,265.6963,28.8403,265.6964z" style="fill: rgb(7, 166, 125);"/></g><g id="__id7_s4mouc2hu"><path d="M352.0259,144.5206v22.9529h-67.0375c-0.5151,4.0342-1.3042,7.9822-2.3369,11.8303l61.9688,25.5545 l-8.7505,21.2198l-61.9707-25.5552c-2.0522,3.5818-4.3481,7.0055-6.8589,10.2551l47.4106,47.4103l-16.2305,16.2304l-47.4102-47.4103 c-3.1758,2.4536-6.518,4.7019-10.0112,6.7183l25.7495,61.8903l-21.1924,8.8171l-25.7485-61.8882 c-3.9341,1.0692-7.9732,1.8831-12.1021,2.4106v67.0375h-22.9531v-67.0375c-4.0342-0.5153-7.9825-1.3042-11.8306-2.3371 l-25.5547,61.9687l-21.2197-8.7505l25.5552-61.9704c-3.5816-2.0524-7.0054-4.3481-10.2549-6.8587l-47.4102,47.4103L77.607,258.1885 l47.4101-47.4104c-2.4537-3.1757-4.7017-6.5177-6.7183-10.0112l-61.8901,25.7496l-8.8174-21.1923l61.8882-25.7487 c-1.0688-3.9339-1.8828-7.9727-2.4106-12.1019H40.0318v-22.9532h67.0372c0.5156-4.0341,1.3042-7.9822,2.3374-11.8304 l-61.9688-25.5544l8.7505-21.2198l61.9702,25.5552c2.0527-3.5817,4.3482-7.0054,6.8589-10.255L77.607,53.8057l16.2305-16.2304 l47.4101,47.4103c3.1758-2.4535,6.5175-4.7018,10.0112-6.7183L125.5093,16.377l21.192-8.817l25.749,61.8881 c3.9336-1.0692,7.9727-1.8831,12.1021-2.4106V0h22.9531v67.0377c4.0342,0.5153,7.982,1.3043,11.8301,2.3371L244.8903,7.406 l21.2197,8.7506L240.5548,78.127c3.5821,2.0524,7.0054,4.3481,10.2554,6.8586l47.4101-47.4102l16.2305,16.2304l-47.4106,47.4102 c2.4537,3.1757,4.7022,6.5177,6.7183,10.0112l61.8906-25.7496l8.8169,21.1922l-61.8882,25.7487 c1.0693,3.9338,1.8833,7.9728,2.4106,12.102L352.0259,144.5206L352.0259,144.5206z" style="fill: rgb(237, 129, 49);"/></g></svg>