<svg xmlns="http://www.w3.org/2000/svg" xmlns:xlink="http://www.w3.org/1999/xlink" preserveAspectRatio="xMidYMid meet" version="1.0" viewBox="0.0 -0.3 500.0 500.0" zoomAndPan="magnify" style="fill: rgb(0, 0, 0);" original_string_length="1059" width="157.5px" height="157.5px"><g id="__id19_s4mouc2hu"><path d="M0 -0.3H500V499.7H0z" style="fill: rgb(25, 175, 135);"/></g><g id="__id20_s4mouc2hu"><path d="M388.4,223.1C388.4,155.5,260,38.5,260,38.5s-116.6,117-116.6,184.7c0,64.2,49.5,116.9,112.4,122.1v-7.9 l-4.3-4.3l0,0l-20.4-24.3l7.2-17.5l17.5,17.5v-22.6l-31.7-31.7l14.3-14.3l17.4,17.4v-18.7l-4.2-4.2l0,0L224.1,207l14.3-14.3 l17.4,17.4v-22.6l-18.3-19l10.2-17.7l8.1,8.1l0.5-36.3c2.8-1.4,5.9-2.4,10.2-2.4c2.9,0,5.8,0.7,9.1,2.3l0.4,0.2v36.4l8.6-7.6 l9.9,17.7L276,187.8v22.4l17.4-17.4l14.3,14.3l-27.5,27.5l0,0l-4.2,4.2v18.8l17.5-17.5l14.3,14.3L276,286.2v22.4l17.4-17.4 l8.8,17.2L280.1,333l0,0l-4.1,4.1l-0.5,8.1C338.7,340.4,388.4,287.6,388.4,223.1z" style="fill: rgb(0, 100, 89);"/></g><g id="__id21_s4mouc2hu"><path d="M464.7 322.3L271.1 382.2 172.2 341.7 46.9 383.1 46.9 463.4 168.6 417.8 271.1 449.3 466.1 352.8z" style="fill: rgb(253, 136, 61);"/></g></svg>